<svg width="442" height="95" viewBox="0 0 442 95" fill="none" xmlns="http://www.w3.org/2000/svg">
<path d="M38.211 25.4739C46.7023 25.4739 53.5121 27.9541 58.6405 32.9143C63.7689 37.8746 66.3331 45.2309 66.3331 54.9833V93.5726H50.5696V57.001C50.5696 51.1159 49.1824 46.7021 46.408 43.7596C43.6336 40.733 39.6822 39.2198 34.5537 39.2198C28.7527 39.2198 24.1709 40.9852 20.808 44.5162C17.4451 47.9632 15.7636 52.9656 15.7636 59.5232V93.5726H0V0H15.7636V34.0492C18.3698 31.2748 21.5646 29.1731 25.3478 27.7438C29.2151 26.2305 33.5029 25.4739 38.211 25.4739Z" fill="#231F20"/>
<path d="M139.261 81.0984C146.575 81.0984 152.671 78.6602 157.547 73.7841L165.87 83.4943C162.927 87.1095 159.144 89.8418 154.52 91.6914C149.896 93.541 144.684 94.4659 138.883 94.4659C131.484 94.4659 124.969 92.9946 119.336 90.0521C113.703 87.1095 109.331 83.0319 106.221 77.8195C103.194 72.5229 101.681 66.5539 101.681 59.9121C101.681 53.3545 103.152 47.4693 106.094 42.2568C109.121 36.9602 113.241 32.8407 118.453 29.8982C123.75 26.9556 129.719 25.4844 136.361 25.4844C142.666 25.4844 148.383 26.8715 153.511 29.6459C158.724 32.3363 162.843 36.2458 165.87 41.3742C168.897 46.4185 170.41 52.3455 170.41 59.1553L118.831 69.2441C120.429 73.1115 122.993 76.054 126.524 78.0717C130.055 80.0894 134.301 81.0984 139.261 81.0984ZM136.361 38.0953C130.56 38.0953 125.851 39.9868 122.236 43.7701C118.705 47.5533 116.94 52.6398 116.94 59.0294V59.1557L155.025 51.8414C153.932 47.7218 151.704 44.401 148.341 41.8789C145.062 39.3567 141.069 38.0954 136.361 38.0954V38.0953Z" fill="#231F20"/>
<path d="M227.727 94.4554C220.749 94.4554 215.285 92.5638 211.333 88.7805C207.466 84.9132 205.532 79.4905 205.532 72.5125V0H221.296V71.3775C221.296 78.1032 224.449 81.4661 230.754 81.4661C232.856 81.4661 234.748 81.0458 236.429 80.2051L237.185 92.8159C234.243 93.9089 231.09 94.4554 227.727 94.4554H227.727Z" fill="#231F20"/>
<path d="M335.007 26.241V93.5831H320V84.8816C317.394 88.0764 314.157 90.4724 310.29 92.0698C306.506 93.6672 302.303 94.4659 297.679 94.4659C291.121 94.4659 285.236 93.0366 280.024 90.1781C274.895 87.3196 270.86 83.2842 267.917 78.0717C265.059 72.8592 263.629 66.8061 263.629 59.9121C263.629 53.0182 265.059 47.0069 267.917 41.8785C270.86 36.666 274.895 32.6305 280.024 29.772C285.236 26.9136 291.121 25.4844 297.679 25.4844C302.051 25.4844 306.044 26.241 309.659 27.7543C313.358 29.2676 316.553 31.4956 319.243 34.4381V26.241H335.007ZM299.444 80.9722C305.245 80.9722 310.038 79.0385 313.821 75.1712C317.604 71.3039 319.496 66.2176 319.496 59.9121C319.496 53.6067 317.604 48.5202 313.821 44.6529C310.038 40.7855 305.245 38.8519 299.444 38.8519C293.643 38.8519 288.851 40.7855 285.068 44.6529C281.369 48.5202 279.519 53.6067 279.519 59.9121C279.519 66.2176 281.369 71.3039 285.068 75.1712C288.851 79.0385 293.643 80.9722 299.444 80.9722Z" fill="#231F20"/>
<path d="M441.179 26.2266V93.5686H426.172V84.9933C423.65 88.0199 420.497 90.3739 416.714 92.0553C412.93 93.6527 408.853 94.4514 404.481 94.4514C395.485 94.4514 388.381 91.9713 383.169 87.011C378.04 81.9667 375.476 74.5262 375.476 64.6897V26.2266H391.24V62.5459C391.24 68.5991 392.585 73.1391 395.275 76.1657C398.05 79.1082 401.959 80.5795 407.003 80.5795C412.636 80.5795 417.092 78.8559 420.371 75.4089C423.734 71.8779 425.415 66.8336 425.415 60.2759V26.2266H441.179Z" fill="#231F20"/>
</svg>
